<svg xmlns="http://www.w3.org/2000/svg" xmlns:xlink="http://www.w3.org/1999/xlink" width="186.786" height="172.989" viewBox="0 0 186.786 172.989"><defs><filter id="a" x="9.648" y="143.484" width="166.196" height="29.505" filterUnits="userSpaceOnUse"><feOffset dy="3" input="SourceAlpha"/><feGaussianBlur stdDeviation="3" result="b"/><feFlood flood-opacity="0.161"/><feComposite operator="in" in2="b"/><feComposite in="SourceGraphic"/></filter><filter id="c" x="14.393" y="7.857" width="156.707" height="156.707" filterUnits="userSpaceOnUse"><feOffset dy="3" input="SourceAlpha"/><feGaussianBlur stdDeviation="3" result="d"/><feFlood flood-opacity="0.161"/><feComposite operator="in" in2="d"/><feComposite in="SourceGraphic"/></filter><filter id="e" x="153.1" y="29.813" width="33.686" height="33.686" filterUnits="userSpaceOnUse"><feOffset dy="3" input="SourceAlpha"/><feGaussianBlur stdDeviation="3" result="f"/><feFlood flood-opacity="0.161"/><feComposite operator="in" in2="f"/><feComposite in="SourceGraphic"/></filter><filter id="g" x="0" y="77.211" width="29.771" height="29.771" filterUnits="userSpaceOnUse"><feOffset dy="3" input="SourceAlpha"/><feGaussianBlur stdDeviation="3" result="h"/><feFlood flood-opacity="0.161"/><feComposite operator="in" in2="h"/><feComposite in="SourceGraphic"/></filter><filter id="i" x="25.452" y="0" width="25.857" height="25.857" filterUnits="userSpaceOnUse"><feOffset dy="3" input="SourceAlpha"/><feGaussianBlur stdDeviation="3" result="j"/><feFlood flood-opacity="0.161"/><feComposite operator="in" in2="j"/><feComposite in="SourceGraphic"/></filter><clipPath id="k"><rect width="146" height="146" transform="translate(752.553 952.815)" fill="#fff" stroke="#707070" stroke-width="1"/></clipPath></defs><g transform="translate(5637.212 8597.712)"><g transform="translate(-5618.564 -8583.854)"><g transform="matrix(1, 0, 0, 1, -18.65, -13.86)" filter="url(#a)"><path d="M74.1,0c40.923,0,74.1,2.576,74.1,5.753s-33.175,5.753-74.1,5.753S0,8.93,0,5.753,33.175,0,74.1,0Z" transform="translate(18.65 149.48)" fill="#a1b3d6"/></g><g transform="matrix(1, 0, 0, 1, -18.65, -13.86)" filter="url(#c)"><path d="M69.354,0A69.353,69.353,0,1,1,0,69.353,69.353,69.353,0,0,1,69.354,0Z" transform="translate(23.39 13.86)" fill="#f3f9ff"/></g><g transform="matrix(1, 0, 0, 1, -18.65, -13.86)" filter="url(#e)"><circle cx="5.546" cy="5.546" r="5.546" transform="translate(162.1 43.66) rotate(-45)" fill="#455a64"/></g><g transform="matrix(1, 0, 0, 1, -18.65, -13.86)" filter="url(#g)"><circle cx="4.162" cy="4.162" r="4.162" transform="translate(9 89.1) rotate(-45)" fill="#455a64"/></g><g transform="matrix(1, 0, 0, 1, -18.65, -13.86)" filter="url(#i)"><circle cx="2.778" cy="2.778" r="2.778" transform="translate(34.45 9.93) rotate(-45)" fill="#455a64"/></g><g transform="translate(-744.989 -960.96)" clip-path="url(#k)"><g transform="translate(752.11 954.798)"><path d="M52.389,98.356l-11.126-2.28-6.438,6.668L12.881,85.422l14.636-9.988L43.078,58.4a5.856,5.856,0,0,1,9.279.83L70.794,80.379a6.8,6.8,0,0,1-1.644,10.306L58.287,97.153A10.1,10.1,0,0,1,52.389,98.356Zm0,0" transform="translate(7.51 32.94)" fill="#ffe7cf"/><path d="M66.893,73.484l-4.5-5.16L43.633,79.505a10.119,10.119,0,0,1-5.9,1.2l-9.744-1.05-8.417,7.23,11.352,8.96,6.437-6.668,11.126,2.281a10.118,10.118,0,0,0,5.9-1.2L65.249,83.79A6.8,6.8,0,0,0,66.893,73.484Zm0,0" transform="translate(11.411 39.835)" fill="#efd5bd"/><path d="M61.756,84.337c-2.172-3.369-4.818-1.663-6.99-5.033s.473-5.075-1.7-8.444S48.25,69.2,46.077,65.825s.473-5.076-1.7-8.446c-1.328-2.06-3.733-6.311-5.2-6.9L27.454,56.276l20.4,32.18a6.655,6.655,0,0,0,9.2,1.987l3.9-2.517a2.594,2.594,0,0,0,.816-3.56C61.769,84.356,61.763,84.347,61.756,84.337Zm0,0" transform="translate(16.006 29.432)" fill="#344a5d"/><path d="M35.217,62.854l-9.211,5.682a3.718,3.718,0,0,1-5.118-1.211l-5.207-8.439a3.72,3.72,0,0,1,1.212-5.118L26.1,48.086a2.3,2.3,0,0,1,3.167.75l6.695,10.851A2.3,2.3,0,0,1,35.217,62.854Zm0,0" transform="translate(8.819 27.835)" fill="#344a5d"/><path d="M39.189,55.583l-18.7,11.536a5.235,5.235,0,0,0-1.706,7.2l9.219,14.941a5.235,5.235,0,0,0,7.2,1.707l18.7-11.536,59.135-12.872L77.218,8.5Zm0,0" transform="translate(10.498 4.958)" fill="#fed066"/><path d="M102.9,36.538,44.071,49.905,20.921,64.19l5.385,8.729a5.235,5.235,0,0,0,7.2,1.707l18.7-11.536,59.136-12.872Zm0,0" transform="translate(12.197 21.303)" fill="#f5b556"/><path d="M53.906,62.1l-18.7,11.536a5.235,5.235,0,0,1-7.2-1.707L18.787,56.983a5.235,5.235,0,0,1,1.706-7.2l18.7-11.536Zm0,0" transform="translate(10.498 22.297)" fill="#a0d468"/><path d="M44.071,44.982,20.921,59.267,26.306,68a5.235,5.235,0,0,0,7.2,1.707l18.7-11.536Zm0,0" transform="translate(12.197 26.226)" fill="#7cae46"/><path d="M96.985,72.692l-2.552,1.574a2.815,2.815,0,0,1-3.874-.918L52.049,10.935a2.815,2.815,0,0,1,.918-3.873l2.552-1.574a2.815,2.815,0,0,1,3.873.917L97.9,68.818A2.815,2.815,0,0,1,96.985,72.692Zm0,0" transform="translate(30.101 2.954)" fill="#a0d468"/><path d="M85.9,49.121,79.562,38.852,72.22,43.383l6.336,10.268a2.815,2.815,0,0,0,3.874.918l2.552-1.574A2.815,2.815,0,0,0,85.9,49.121Zm0,0" transform="translate(42.106 22.652)" fill="#7cae46"/><path d="M45.719,81.531a4.833,4.833,0,0,0,6.645,1.6l7.047-4.307a4.833,4.833,0,0,0-5.041-8.248l-7.047,4.308A4.832,4.832,0,0,0,45.719,81.531Zm0,0" transform="translate(26.242 40.737)" fill="#ffe7cf"/><path d="M61,72.061a4.8,4.8,0,0,0-2.354-1.973,4.833,4.833,0,0,1-2.267,4.772l-7.047,4.307a4.823,4.823,0,0,1-4.29.368,4.83,4.83,0,0,0,7.308,3.475L59.392,78.7A4.832,4.832,0,0,0,61,72.061Zm0,0" transform="translate(26.258 40.863)" fill="#efd5bd"/><path d="M43.816,75.535a4.906,4.906,0,0,0,6.746,1.629l6.921-4.23a4.906,4.906,0,0,0-5.117-8.372l-6.922,4.231A4.9,4.9,0,0,0,43.816,75.535Zm0,0" transform="translate(25.126 37.221)" fill="#ffe7cf"/><path d="M59.1,66.051a4.886,4.886,0,0,0-2.308-1.97,4.9,4.9,0,0,1-2.305,4.8l-6.921,4.231a4.9,4.9,0,0,1-4.438.34,4.9,4.9,0,0,0,7.424,3.568l6.921-4.23A4.906,4.906,0,0,0,59.1,66.051Zm0,0" transform="translate(25.142 37.361)" fill="#efd5bd"/><path d="M40.557,70.281A4.907,4.907,0,0,0,47.3,71.91l6.921-4.231a4.906,4.906,0,1,0-5.117-8.371l-6.921,4.23A4.906,4.906,0,0,0,40.557,70.281Zm0,0" transform="translate(23.226 34.158)" fill="#ffe7cf"/><path d="M55.84,60.787a4.886,4.886,0,0,0-2.251-1.947,4.9,4.9,0,0,1-2.313,4.732L44.354,67.8a4.9,4.9,0,0,1-4.495.318,4.9,4.9,0,0,0,7.43,3.64l6.921-4.23A4.907,4.907,0,0,0,55.84,60.787Zm0,0" transform="translate(23.239 34.306)" fill="#efd5bd"/><path d="M37.485,64.892a4.907,4.907,0,0,0,6.746,1.629l6.921-4.231a4.906,4.906,0,1,0-5.117-8.371l-6.921,4.23A4.907,4.907,0,0,0,37.485,64.892Zm0,0" transform="translate(21.435 31.015)" fill="#ffe7cf"/><path d="M52.739,55.465a4.881,4.881,0,0,0-2.747-2.128,4.905,4.905,0,0,1-2.235,5.209l-6.921,4.231a4.893,4.893,0,0,1-4,.5,4.9,4.9,0,0,0,7.352,3.164l6.922-4.23A4.907,4.907,0,0,0,52.739,55.465Zm0,0" transform="translate(21.477 31.097)" fill="#efd5bd"/><path d="M56.4,71.2l-1.283.785a4.23,4.23,0,0,1-5.831-1.322l-2.128-3.477a3.646,3.646,0,0,0-5.048-1.127C40.364,78.888,22.126,77.728,22.126,77.728L33.428,60.7a9.1,9.1,0,0,1,3.078-3.17l6.379-3.956a6.5,6.5,0,0,1,8.988,2l6.011,9.811A4.232,4.232,0,0,1,56.4,71.2Zm0,0" transform="translate(12.9 30.647)" fill="#ffe7cf"/><path d="M53.358,62.279l-.049-.08a4.373,4.373,0,0,1-1.431,1.42l-1.285.784a4.229,4.229,0,0,1-5.831-1.322L42.636,59.6a3.648,3.648,0,0,0-5.049-1.127c-.733,5.382-4.024,10.539-7.7,14.073,3.715-1.632,7-4.52,7.7-9.61a3.647,3.647,0,0,1,5.049,1.127l2.127,3.477a4.229,4.229,0,0,0,5.831,1.322l1.285-.785A4.233,4.233,0,0,0,53.358,62.279Zm0,0" transform="translate(17.427 33.762)" fill="#efd5bd"/><path d="M33.587,95.718,15.61,74.354l5.919-4.981a.443.443,0,0,1,.623.053L39.561,90.113a.441.441,0,0,1-.053.622Zm0,0" transform="translate(9.101 40.386)" fill="#cdd6df"/><path d="M36.455,86.49,27.194,75.484,20.936,80.75l9.546,11.344,5.92-4.981A.442.442,0,0,0,36.455,86.49Zm0,0" transform="translate(12.206 44.009)" fill="#96a4aa"/><path d="M43.186,94.306,23.756,71.513a.467.467,0,0,0-.619-.083L2.443,87.764a2.879,2.879,0,0,0-1.1,2.26V96.67a2.879,2.879,0,0,0,2.879,2.879H38.078a2.881,2.881,0,0,0,2.245-1.076l2.844-3.539A.469.469,0,0,0,43.186,94.306Zm0,0" transform="translate(0.786 41.598)" fill="#3c5666"/><path d="M36.166,89.831,26.952,79.023,13.389,95.075H31.058A2.881,2.881,0,0,0,33.3,94l2.845-3.54A.467.467,0,0,0,36.166,89.831Zm0,0" transform="translate(7.806 46.072)" fill="#194451"/><path d="M72.783,25.861a2.134,2.134,0,0,0,2.936.7l11.565-7.114a2.133,2.133,0,1,0-2.237-3.633L73.483,22.926A2.134,2.134,0,0,0,72.783,25.861Zm0,0" transform="translate(42.25 9.034)"/><path d="M97.889,31.608,80.935,29.961a2.133,2.133,0,1,0-.412,4.247l16.952,1.647c.071.007.14.01.209.01a2.133,2.133,0,0,0,.2-4.257Zm0,0" transform="translate(45.823 17.462)"/><path d="M67.7,20a2.128,2.128,0,0,0,2.761-1.214L76.636,2.907A2.133,2.133,0,0,0,72.66,1.36L66.485,17.235A2.133,2.133,0,0,0,67.7,20Zm0,0" transform="translate(38.677 0)"/><path d="M91.31,6.069A4.954,4.954,0,0,0,84.5,4.457L81.948,6.031a4.948,4.948,0,0,0-1.613,6.809L81.8,15.218,48.256,56.748l-7.084,4.371a2.134,2.134,0,0,0,2.241,3.631l5.579-3.442L59.864,78.929a8.717,8.717,0,0,0-4.561.955l-.076.039c-.191.1-.381.207-.567.321L48.282,84.2a11.445,11.445,0,0,0-3.766,3.856l-1.574,2.373L41.784,92.17l-.03-.01-.052-.024c-.09-.04-.179-.084-.264-.132l-.055-.03a3.2,3.2,0,0,1-.274-.183c-.019-.013-.037-.028-.055-.042-.08-.062-.159-.129-.233-.2l-.028-.026a3.267,3.267,0,0,1-.228-.249c-.015-.019-.03-.039-.046-.058a3.234,3.234,0,0,1-.2-.283L31.1,75.991a3.1,3.1,0,0,1,1.01-4.268l2.76-1.7a2.133,2.133,0,0,0-2.24-3.631l-2.76,1.7a7.371,7.371,0,0,0-3.227,8.261L24.592,77.62a5.859,5.859,0,0,0-1.907,8.053l5.207,8.439a5.814,5.814,0,0,0,3.631,2.621,5.907,5.907,0,0,0,1.36.16,5.807,5.807,0,0,0,3.061-.874L38,94.751a7.367,7.367,0,0,0,1.4,1l-5.923,8.922-1.4.953a2.576,2.576,0,0,0-2.826.326l-3.675,3.093a2.594,2.594,0,0,0-2.86.044c-.041.029-.082.058-.121.089L1.907,125.519A4.984,4.984,0,0,0,0,129.453V136.1a5.018,5.018,0,0,0,5.012,5.012H38.864a4.988,4.988,0,0,0,3.908-1.873l2.807-3.492a2.588,2.588,0,0,0,.626-1.981l3.777-3.179a2.559,2.559,0,0,0,.783-1.153l8.706,1.785a2.1,2.1,0,0,0,.39.043c.255,0,.508.008.761.008a11.344,11.344,0,0,0,6.268-1.511l8.77-5.223c.147.009.294.014.439.014a6.918,6.918,0,0,0,3.62-1.025l7.046-4.307a6.959,6.959,0,0,0-.48-12.15,7.031,7.031,0,0,0-4.519-10.09,7.016,7.016,0,0,0-4.929-8.252,7.021,7.021,0,0,0-.8-5.442,7.133,7.133,0,0,0-.931-1.2l42.272-9.2,1.468,2.378a4.951,4.951,0,0,0,6.809,1.613l2.552-1.575a4.948,4.948,0,0,0,1.612-6.81Zm-57.6,86.319a1.586,1.586,0,0,1-2.182-.517l-5.207-8.439a1.589,1.589,0,0,1,.517-2.182l1.81-1.117L35.515,91.27Zm5.74,44.177a.739.739,0,0,1-.581.279H5.012a.746.746,0,0,1-.746-.746v-6.646a.742.742,0,0,1,.283-.586l19.409-15.321,17.494,20.521Zm4.338-6.341-15.345-18,2.272-1.912,15.23,18.1ZM64.695,126.1a7.774,7.774,0,0,1-4.563.9L49.2,124.757a2.127,2.127,0,0,0-.772-.017L35.013,108.8l1.215-.83,0,0,.06-.046c.046-.034.091-.069.133-.106.021-.019.041-.039.061-.058.044-.04.083-.081.122-.124.016-.017.032-.034.047-.052.048-.058.093-.117.135-.178a.154.154,0,0,0,.012-.016l.01-.014.01-.017L48.105,90.363c.024-.037.048-.075.07-.112a6.978,6.978,0,0,1,2.356-2.424L56.91,83.87c.118-.073.238-.139.359-.2.054-.028.11-.051.164-.077s.128-.058.193-.083.149-.058.226-.083c.039-.015.079-.027.119-.039.093-.029.188-.057.282-.08h0a4.531,4.531,0,0,1,1.04-.127h.022c.1,0,.2,0,.3.011l.1.009c.09.008.179.018.268.031.052.008.106.019.159.029a4.122,4.122,0,0,1,.4.1c.051.015.1.028.153.043.068.023.133.049.2.076s.106.04.156.062.131.059.2.091c.049.024.1.049.143.075.064.034.129.071.192.11.043.027.085.055.128.082.063.042.127.084.188.131.038.028.073.058.109.087.063.05.125.1.185.154a4.089,4.089,0,0,1,.755.906l.157.257,2.274,3.711L68.24,93.8l.726,1.186a1.867,1.867,0,0,1,.169.35,1.992,1.992,0,0,1,.06,1.156,2.194,2.194,0,0,1-1,1.362l-1.283.785h0a2.258,2.258,0,0,1-.272.139l-.06.026a2.213,2.213,0,0,1-.28.093l-.035.008a2.233,2.233,0,0,1-.267.047l-.052.007a2.462,2.462,0,0,1-.286.007l-.053,0a2.2,2.2,0,0,1-.287-.037h0a2.09,2.09,0,0,1-.3-.085l-.026-.009a2,2,0,0,1-.552-.319,0,0,0,0,1,0,0,2.056,2.056,0,0,1-.23-.22l-.018-.021a1.868,1.868,0,0,1-.181-.246l-2.127-3.477a5.64,5.64,0,0,0-3.539-2.558,5.83,5.83,0,0,0-4.453.731,2.135,2.135,0,0,0-.99,1.524c-.024.182-.055.361-.087.538-.024.129-.052.257-.081.383-.009.042-.018.085-.028.128-.038.16-.079.318-.124.473a.171.171,0,0,1-.006.019,9.039,9.039,0,0,1-1.006,2.268,0,0,0,0,0,0,0A10.018,10.018,0,0,1,48.18,101.3a2.133,2.133,0,1,0,2.217,3.646,15.609,15.609,0,0,0,2.766-2.122l8.909,14.05a8.841,8.841,0,0,0,7.412,4.022c.156,0,.311-.008.467-.017.061.111.123.221.19.331A7.036,7.036,0,0,0,71,122.342Zm1.81-15.685s0,0,0,0c.036.1.074.2.115.3,0,.011.009.023.015.036.037.089.077.177.118.264.01.019.018.04.028.06.039.082.082.164.125.245.013.024.024.049.038.072.057.1.117.208.179.31.107.176.223.343.343.507.043.058.088.114.132.171.079.1.16.2.243.292.059.067.117.135.178.2.046.049.1.093.143.141a7.028,7.028,0,0,0,.541.488c.02.015.039.032.059.047a6.928,6.928,0,0,0,1.179.756,7.024,7.024,0,0,0-.754,2.322,4.53,4.53,0,0,1-3.522-2.047L55.858,99.108A13.729,13.729,0,0,0,56.9,96.1a1.591,1.591,0,0,1,.457.04,1.41,1.41,0,0,1,.886.633l2.127,3.477.01.014a5.931,5.931,0,0,0,.338.494c.089.117.185.226.28.335.033.038.063.079.1.117,0,.019.01.038.015.057q.05.221.113.44c.013.042.026.084.038.127.052.164.108.328.172.488.005.017.013.032.02.048.059.147.125.29.195.432.02.041.04.082.061.122.08.156.163.309.254.46a6.99,6.99,0,0,0,4.287,3.153A7.011,7.011,0,0,0,66.5,110.413Zm1.361-25.391.717-.438a2.773,2.773,0,1,1,2.892,4.731l-.712.436L68.653,86.31Zm15.9,25.626a2.7,2.7,0,0,1,.773,4.928l-7.046,4.307a2.679,2.679,0,0,1-1.871.353c-.037-.008-.075-.016-.112-.022l-.058-.011a2.682,2.682,0,0,1-2.01-2.088.164.164,0,0,0,0-.024,2.717,2.717,0,0,1,.715-2.394c.017-.016.032-.034.049-.05s.063-.059.1-.088.066-.058.1-.084.05-.041.077-.061c.063-.047.127-.091.195-.133l.005,0,1.4-.856a7.266,7.266,0,0,0,.724-.383l5.39-3.3A2.686,2.686,0,0,1,83.765,110.648ZM78.857,101.3a2.773,2.773,0,0,1,2.64,4.868l-1.269.776a7.131,7.131,0,0,0-.73.388l-5.362,3.277a2.78,2.78,0,0,1-2.893-.544h0c-.06-.055-.117-.112-.171-.173-.015-.017-.028-.035-.042-.051-.04-.047-.08-.093-.118-.143-.052-.07-.1-.142-.148-.217s-.089-.156-.128-.236c-.012-.026-.022-.051-.034-.078-.024-.055-.049-.11-.07-.167-.011-.03-.02-.059-.03-.089-.018-.054-.034-.108-.049-.162-.008-.03-.016-.061-.022-.091q-.018-.082-.034-.167l-.013-.087c-.008-.058-.013-.115-.017-.173,0-.028,0-.056-.006-.083,0-.06,0-.12,0-.179,0-.027,0-.052,0-.078,0-.061.01-.121.017-.181,0-.026,0-.051.009-.077.008-.053.019-.107.03-.16a2.767,2.767,0,0,1,.889-1.516c.019-.017.036-.037.054-.053s.052-.047.08-.069c.067-.038.135-.072.2-.112l6.922-4.231Q78.714,101.4,78.857,101.3Zm-3.315-8.511a2.773,2.773,0,0,1,1.048,4.887c-.071.039-.141.079-.211.121l-5.345,3.267c.018-.013.034-.029.052-.043.1-.081.2-.163.3-.25.06-.053.117-.11.174-.166.087-.084.174-.17.256-.26.057-.06.11-.123.163-.186.077-.091.152-.182.223-.277.05-.066.1-.132.148-.2.068-.1.132-.2.2-.3.043-.07.087-.139.127-.21.061-.107.117-.217.171-.327.034-.07.071-.138.1-.209.056-.123.1-.25.153-.378.022-.061.049-.121.07-.183.066-.192.125-.387.172-.586s.081-.381.109-.572c.009-.061.013-.122.021-.183.016-.131.028-.261.036-.392,0-.071,0-.142.005-.213,0-.122,0-.243,0-.364,0-.072-.007-.145-.011-.217-.009-.122-.023-.244-.039-.366-.009-.068-.017-.135-.028-.2-.023-.138-.052-.273-.086-.409-.011-.049-.02-.1-.032-.148-.049-.183-.1-.364-.17-.543-.013-.034-.029-.069-.043-.1-.047-.12-.092-.241-.147-.359l.49-.3A2.756,2.756,0,0,1,75.542,92.786Zm50.729-21.548a.68.68,0,0,1-.305.422l-2.552,1.576a.683.683,0,0,1-.938-.222L95.6,29.464a2.133,2.133,0,1,0-3.63,2.24L115,69.026,65.427,79.818,52.3,58.536,84.178,19.068l2.575,4.176A2.134,2.134,0,1,0,90.385,21L83.966,10.6a.681.681,0,0,1,.222-.938L86.74,8.088a.682.682,0,0,1,.938.222l38.51,62.413A.677.677,0,0,1,126.271,71.238Zm0,0" transform="translate(0 2.169)"/></g></g></g></g></svg>