<svg xmlns="http://www.w3.org/2000/svg" xmlns:xlink="http://www.w3.org/1999/xlink" width="187.786" height="174.989" viewBox="0 0 187.786 174.989"><defs><filter id="a" x="10.648" y="145.484" width="166.196" height="29.505" filterUnits="userSpaceOnUse"><feOffset dy="3" input="SourceAlpha"/><feGaussianBlur stdDeviation="3" result="b"/><feFlood flood-opacity="0.161"/><feComposite operator="in" in2="b"/><feComposite in="SourceGraphic"/></filter><filter id="c" x="15.393" y="9.857" width="156.707" height="156.707" filterUnits="userSpaceOnUse"><feOffset dy="3" input="SourceAlpha"/><feGaussianBlur stdDeviation="3" result="d"/><feFlood flood-opacity="0.161"/><feComposite operator="in" in2="d"/><feComposite in="SourceGraphic"/></filter><filter id="e" x="154.1" y="31.813" width="33.686" height="33.686" filterUnits="userSpaceOnUse"><feOffset dy="3" input="SourceAlpha"/><feGaussianBlur stdDeviation="3" result="f"/><feFlood flood-opacity="0.161"/><feComposite operator="in" in2="f"/><feComposite in="SourceGraphic"/></filter><filter id="g" x="0" y="79.211" width="29.771" height="29.771" filterUnits="userSpaceOnUse"><feOffset dy="3" input="SourceAlpha"/><feGaussianBlur stdDeviation="3" result="h"/><feFlood flood-opacity="0.161"/><feComposite operator="in" in2="h"/><feComposite in="SourceGraphic"/></filter><filter id="i" x="26.452" y="0" width="25.857" height="25.857" filterUnits="userSpaceOnUse"><feOffset dy="3" input="SourceAlpha"/><feGaussianBlur stdDeviation="3" result="j"/><feFlood flood-opacity="0.161"/><feComposite operator="in" in2="j"/><feComposite in="SourceGraphic"/></filter></defs><g transform="translate(5638.212 9653.991)"><g transform="translate(-5618.564 -9638.134)"><g transform="matrix(1, 0, 0, 1, -19.65, -15.86)" filter="url(#a)"><path d="M74.1,0c40.923,0,74.1,2.576,74.1,5.753s-33.175,5.753-74.1,5.753S0,8.93,0,5.753,33.175,0,74.1,0Z" transform="translate(19.65 151.48)" fill="#a1b3d6"/></g><g transform="matrix(1, 0, 0, 1, -19.65, -15.86)" filter="url(#c)"><path d="M69.354,0A69.353,69.353,0,1,1,0,69.353,69.353,69.353,0,0,1,69.354,0Z" transform="translate(24.39 15.86)" fill="#f3f9ff"/></g><g transform="matrix(1, 0, 0, 1, -19.65, -15.86)" filter="url(#e)"><circle cx="5.546" cy="5.546" r="5.546" transform="translate(163.1 45.66) rotate(-45)" fill="#455a64"/></g><g transform="matrix(1, 0, 0, 1, -19.65, -15.86)" filter="url(#g)"><circle cx="4.162" cy="4.162" r="4.162" transform="translate(9 91.1) rotate(-45)" fill="#455a64"/></g><g transform="matrix(1, 0, 0, 1, -19.65, -15.86)" filter="url(#i)"><circle cx="2.778" cy="2.778" r="2.778" transform="translate(35.45 9.93) rotate(-45)" fill="#455a64"/></g></g></g></svg>