<svg xmlns="http://www.w3.org/2000/svg" width="85" height="89" viewBox="0 0 85 89"><g transform="translate(-180 -1209)"><rect width="85" height="89" rx="12" transform="translate(180 1209)" fill="#fde07e"/><g transform="translate(194 1226)"><g transform="translate(0.879 0.878)"><g transform="translate(2.485 29.816)"><path d="M28.713,262.061h31.71v3.786H28.713Z" transform="translate(-28.713 -262.061)" fill="#d0cee7"/></g><g transform="translate(0 33.603)"><path d="M42.286,307.4H9.393A1.893,1.893,0,0,1,7.5,305.507v-9.229a1.893,1.893,0,0,1,1.893-1.893H42.286a1.893,1.893,0,0,1,1.893,1.893v9.229A1.893,1.893,0,0,1,42.286,307.4Z" transform="translate(-7.5 -294.385)" fill="#efecef"/><g transform="translate(31.71 0)"><path d="M281.3,294.386h-3.076a1.893,1.893,0,0,1,1.893,1.893v9.229a1.893,1.893,0,0,1-1.893,1.893H281.3a1.893,1.893,0,0,0,1.893-1.893v-9.229A1.893,1.893,0,0,0,281.3,294.386Z" transform="translate(-278.224 -294.386)" fill="#dddaec"/></g></g><g transform="translate(2.485 13.015)"><path d="M28.713,118.618h31.71V122.4H28.713Z" transform="translate(-28.713 -118.618)" fill="#d0cee7"/></g><path d="M42.286,20.515H9.393A1.893,1.893,0,0,1,7.5,18.622V9.393A1.893,1.893,0,0,1,9.393,7.5H42.286a1.893,1.893,0,0,1,1.893,1.893v9.229A1.893,1.893,0,0,1,42.286,20.515Z" transform="translate(-7.5 -7.5)" fill="#efecef"/><g transform="translate(31.71 0)"><path d="M281.3,7.5h-3.076a1.893,1.893,0,0,1,1.893,1.893v9.229a1.893,1.893,0,0,1-1.893,1.893H281.3a1.893,1.893,0,0,0,1.893-1.893V9.393A1.893,1.893,0,0,0,281.3,7.5Z" transform="translate(-278.224 -7.5)" fill="#dddaec"/></g><g transform="translate(3.786 4.614)"><circle cx="1.893" cy="1.893" r="1.893" fill="#b3e59f"/></g><g transform="translate(11.359 4.614)"><circle cx="1.893" cy="1.893" r="1.893" fill="#b3e59f"/></g><g transform="translate(0 16.801)"><path d="M42.286,163.957H9.393A1.893,1.893,0,0,1,7.5,162.064v-9.229a1.893,1.893,0,0,1,1.893-1.893H42.286a1.893,1.893,0,0,1,1.893,1.893v9.229A1.893,1.893,0,0,1,42.286,163.957Z" transform="translate(-7.5 -150.942)" fill="#efecef"/><g transform="translate(31.71 0)"><path d="M281.3,150.943h-3.076a1.893,1.893,0,0,1,1.893,1.893v9.229a1.893,1.893,0,0,1-1.893,1.893H281.3a1.893,1.893,0,0,0,1.893-1.893v-9.229A1.893,1.893,0,0,0,281.3,150.943Z" transform="translate(-278.224 -150.943)" fill="#dddaec"/></g></g><g transform="translate(3.786 21.416)"><circle cx="1.893" cy="1.893" r="1.893" fill="#b3e59f"/><g transform="translate(7.572)"><circle cx="1.893" cy="1.893" r="1.893" fill="#b3e59f"/></g></g><g transform="translate(3.786 38.217)"><circle cx="1.893" cy="1.893" r="1.893" fill="#b3e59f"/><g transform="translate(7.572)"><circle cx="1.893" cy="1.893" r="1.893" fill="#b3e59f"/></g></g><g transform="translate(23.19 20.114)"><g transform="translate(10.649)"><path d="M296.406,179.227v3.786h22.007v-2.6a1.183,1.183,0,0,0-1.183-1.183H296.406Z" transform="translate(-296.406 -179.227)" fill="#fcd03e"/></g><path d="M239.33,183.013H219.689l-.924-2.956a1.183,1.183,0,0,0-1.129-.83h-7.726a1.183,1.183,0,0,0-1.129.83l-.924,2.956h-1.183a1.183,1.183,0,0,0-1.183,1.183v20.351a1.183,1.183,0,0,0,1.183,1.183H239.33a1.183,1.183,0,0,0,1.183-1.183V184.2A1.183,1.183,0,0,0,239.33,183.013Z" transform="translate(-205.491 -179.227)" fill="#fcd03e"/><g transform="translate(30.881 3.786)"><path d="M472.1,211.553h-2.958a1.183,1.183,0,0,1,1.183,1.183v20.351a1.183,1.183,0,0,1-1.183,1.183H472.1a1.183,1.183,0,0,0,1.183-1.183V212.736A1.183,1.183,0,0,0,472.1,211.553Z" transform="translate(-469.144 -211.553)" fill="#fcd03e"/></g></g></g><g transform="translate(19.573 38.267)"><circle cx="10.412" cy="10.412" r="10.412" fill="#b3e59f"/></g><g transform="translate(21.332 40.027)"><path d="M196.573,341.732a10.413,10.413,0,0,1-14.446,14.446,10.413,10.413,0,1,0,14.446-14.446Z" transform="translate(-182.127 -341.732)" fill="#95d6a4"/></g><g transform="translate(0 0)"><path d="M162.5,41.153h.7a.878.878,0,1,0,0-1.757h-.7a.878.878,0,1,0,0,1.757Z" transform="translate(-142.695 -34.782)"/><path d="M236.646,41.153h1.168a.878.878,0,0,0,0-1.757h-1.168a.878.878,0,0,0,0,1.757Z" transform="translate(-208.153 -34.782)"/><path d="M197.589,41.153h1.168a.878.878,0,1,0,0-1.757h-1.168a.878.878,0,0,0,0,1.757Z" transform="translate(-173.67 -34.782)"/><path d="M275.7,41.153h.7a.878.878,0,1,0,0-1.757h-.7a.878.878,0,0,0,0,1.757Z" transform="translate(-242.635 -34.782)"/><path d="M275.7,73.479h.7a.878.878,0,1,0,0-1.757h-.7a.878.878,0,0,0,0,1.757Z" transform="translate(-242.635 -63.321)"/><path d="M236.646,73.479h1.168a.878.878,0,0,0,0-1.757h-1.168a.878.878,0,0,0,0,1.757Z" transform="translate(-208.153 -63.321)"/><path d="M197.589,73.479h1.168a.878.878,0,1,0,0-1.757h-1.168a.878.878,0,0,0,0,1.757Z" transform="translate(-173.67 -63.321)"/><path d="M162.5,73.479h.7a.878.878,0,1,0,0-1.757h-.7a.878.878,0,1,0,0,1.757Z" transform="translate(-142.695 -63.321)"/><path d="M32.325,42.168A2.772,2.772,0,1,0,35.1,39.4,2.775,2.775,0,0,0,32.325,42.168ZM35.1,41.154a1.015,1.015,0,1,1-1.015,1.015A1.016,1.016,0,0,1,35.1,41.154Z" transform="translate(-28.539 -34.782)"/><path d="M102.519,42.168a2.772,2.772,0,1,0-2.771,2.772A2.775,2.775,0,0,0,102.519,42.168Zm-3.786,0a1.015,1.015,0,1,1,1.015,1.015A1.016,1.016,0,0,1,98.733,42.168Z" transform="translate(-85.617 -34.782)"/><path d="M35.1,188.383a2.772,2.772,0,1,0-2.772-2.772A2.775,2.775,0,0,0,35.1,188.383Zm0-3.786a1.015,1.015,0,1,1-1.015,1.015A1.016,1.016,0,0,1,35.1,184.6Z" transform="translate(-28.539 -161.424)"/><path d="M99.747,188.383a2.772,2.772,0,1,0-2.772-2.772A2.775,2.775,0,0,0,99.747,188.383Zm0-3.786a1.015,1.015,0,1,1-1.015,1.015A1.016,1.016,0,0,1,99.747,184.6Z" transform="translate(-85.616 -161.424)"/><path d="M35.1,326.282a2.772,2.772,0,1,0,2.772,2.772A2.775,2.775,0,0,0,35.1,326.282Zm0,3.786a1.015,1.015,0,1,1,1.015-1.015A1.016,1.016,0,0,1,35.1,330.068Z" transform="translate(-28.539 -288.065)"/><path d="M99.747,326.282a2.772,2.772,0,1,0,2.772,2.772A2.775,2.775,0,0,0,99.747,326.282Zm0,3.786a1.015,1.015,0,1,1,1.015-1.015A1.016,1.016,0,0,1,99.747,330.068Z" transform="translate(-85.616 -288.065)"/><path d="M57.908,23.9h-.3V22.176a2.064,2.064,0,0,0-2.061-2.061H53.515a.878.878,0,1,0,0,1.757h2.027a.3.3,0,0,1,.3.3V23.9H38.913l-.634-2.029H49.416a.878.878,0,1,0,0-1.757H38.436v-.542a2.776,2.776,0,0,0-2.485-2.757V14.758A2.775,2.775,0,0,0,38.436,12V2.771A2.774,2.774,0,0,0,35.665,0H9.625a.878.878,0,1,0,0,1.757h26.04a1.016,1.016,0,0,1,1.014,1.014V12a1.016,1.016,0,0,1-1.014,1.014H2.771A1.016,1.016,0,0,1,1.757,12V2.771A1.016,1.016,0,0,1,2.771,1.757H5.525A.878.878,0,0,0,5.525,0H2.771A2.774,2.774,0,0,0,0,2.771V12a2.775,2.775,0,0,0,2.485,2.757v2.059A2.776,2.776,0,0,0,0,19.573V28.8a2.775,2.775,0,0,0,2.485,2.757v2.059A2.776,2.776,0,0,0,0,36.374V45.6a2.775,2.775,0,0,0,2.772,2.772H18.7q0,.152,0,.305a11.279,11.279,0,0,0,.173,1.974.878.878,0,0,0,1.73-.308,9.533,9.533,0,1,1,1.36,3.477.878.878,0,0,0-1.479.949,11.291,11.291,0,0,0,20.8-6.092q0-.153,0-.305H57.909a2.064,2.064,0,0,0,2.062-2.062V25.962A2.064,2.064,0,0,0,57.908,23.9ZM4.242,16.8V14.772H34.194V16.8Zm-2.485,12V19.573a1.016,1.016,0,0,1,1.015-1.015H35.665a1.016,1.016,0,0,1,1.015,1.015v.542H28.488a2.05,2.05,0,0,0-1.967,1.447L25.79,23.9h-.538a2.064,2.064,0,0,0-2.062,2.062v3.854H2.772A1.016,1.016,0,0,1,1.757,28.8Zm21.434,2.772V33.6H4.242V31.573ZM18.884,46.618H2.772A1.016,1.016,0,0,1,1.757,45.6V36.374A1.016,1.016,0,0,1,2.772,35.36H23.191v4.309A11.306,11.306,0,0,0,18.884,46.618Zm39.329-.3a.305.305,0,0,1-.3.3H41.086a11.286,11.286,0,0,0-16.138-8.041V25.962a.305.305,0,0,1,.3-.3h1.183a.878.878,0,0,0,.838-.616l.924-2.957a.3.3,0,0,1,.29-.213h7.731a.3.3,0,0,1,.286.214l.924,2.956a.879.879,0,0,0,.838.616H57.909a.305.305,0,0,1,.3.3V46.313Z" transform="translate(0 0)"/><path d="M249.378,418.181a.878.878,0,0,0,0,1.757,5.983,5.983,0,0,0,5.522-3.7.878.878,0,0,0,1.451-.987l-1.138-1.767a.879.879,0,0,0-1.214-.263l-1.767,1.138a.878.878,0,0,0,.91,1.5A4.222,4.222,0,0,1,249.378,418.181Z" transform="translate(-219.393 -364.7)"/><path d="M202.384,359.618a5.983,5.983,0,0,0-5.522,3.7.878.878,0,0,0-1.451.987l1.138,1.767a.879.879,0,0,0,1.214.263l1.767-1.138a.878.878,0,0,0-.91-1.5,4.221,4.221,0,0,1,3.763-2.317.878.878,0,1,0,0-1.757Z" transform="translate(-172.399 -317.496)"/></g></g></g></svg>