<svg xmlns="http://www.w3.org/2000/svg" xmlns:xlink="http://www.w3.org/1999/xlink" width="172" height="172" viewBox="0 0 172 172">
  <defs>
    <clipPath id="clip-path">
      <circle id="Elipse_7760" data-name="Elipse 7760" cx="86" cy="86" r="86" transform="translate(233 3585)" fill="none" stroke="#707070" stroke-width="1"/>
    </clipPath>
  </defs>
  <g id="Enmascarar_grupo_927502" data-name="Enmascarar grupo 927502" transform="translate(-233 -3585)" clip-path="url(#clip-path)">
    <g id="update" transform="translate(268 3620.496)">
      <path id="Trazado_631846" data-name="Trazado 631846" d="M18.6,101.093l4.345-7.527a52.936,52.936,0,0,1-7.672-6.158,50.984,50.984,0,0,1,26.3-86.5L43.807.5l8.508,17.266-4.336.4A32.936,32.936,0,0,0,25.921,72.387a31.768,31.768,0,0,0,6.04,5.561l4.231-7.331,14.06,28.432Zm0,0" transform="translate(0.001 -0.499)" fill="#49bd90"/>
      <path id="Trazado_631847" data-name="Trazado 631847" d="M258.561,103.127,250.047,85.85l4.345-.4a32.973,32.973,0,0,0,16.015-59.778L266.173,33,252.12,4.58l13.854-.922.055.029,17.743-1.168-4.348,7.534A50.966,50.966,0,0,1,260.8,102.706Zm0,0" transform="translate(-200.089 -2.116)" fill="#36475d"/>
      <path id="Trazado_631848" data-name="Trazado 631848" d="M165.268,145.2a15.685,15.685,0,0,0-.06-1.679l6.956-4.017-8.995-15.591-7.015,4.078a20,20,0,0,0-2.878-1.68v-8.095H135.287v8.095a19.921,19.921,0,0,0-2.877,1.68l-7.016-4.078L116.4,139.506l6.956,4.017a23.49,23.49,0,0,0,0,3.358L116.4,150.9l8.995,15.59,7.016-4.078a19.924,19.924,0,0,0,2.877,1.679v8.1h17.989v-8.1a19.934,19.934,0,0,0,2.878-1.679l7.015,4.078,8.995-15.59-6.956-4.018A15.678,15.678,0,0,0,165.268,145.2ZM144.281,154.2a8.995,8.995,0,1,1,8.995-8.995A8.983,8.983,0,0,1,144.281,154.2Zm0,0" transform="translate(-93.143 -94.699)" fill="#243142"/>
      <path id="Trazado_631849" data-name="Trazado 631849" d="M276.884,146.882l6.956,4.018-8.995,15.59-7.015-4.078a19.926,19.926,0,0,1-2.878,1.679v8.1h-8.995V154.2a8.994,8.994,0,1,0,0-17.988V118.219h8.995v8.095a20,20,0,0,1,2.878,1.679l7.015-4.077,8.995,15.59-6.956,4.018a23.478,23.478,0,0,1,0,3.358Zm0,0" transform="translate(-204.818 -94.7)" fill="#344255"/>
    </g>
  </g>
</svg>
