<svg xmlns="http://www.w3.org/2000/svg" xmlns:xlink="http://www.w3.org/1999/xlink" width="186.786" height="172.989" viewBox="0 0 186.786 172.989"><defs><filter id="a" x="9.648" y="143.484" width="166.196" height="29.505" filterUnits="userSpaceOnUse"><feOffset dy="3" input="SourceAlpha"/><feGaussianBlur stdDeviation="3" result="b"/><feFlood flood-opacity="0.161"/><feComposite operator="in" in2="b"/><feComposite in="SourceGraphic"/></filter><filter id="c" x="14.393" y="7.857" width="156.707" height="156.707" filterUnits="userSpaceOnUse"><feOffset dy="3" input="SourceAlpha"/><feGaussianBlur stdDeviation="3" result="d"/><feFlood flood-opacity="0.161"/><feComposite operator="in" in2="d"/><feComposite in="SourceGraphic"/></filter><filter id="e" x="153.1" y="29.813" width="33.686" height="33.686" filterUnits="userSpaceOnUse"><feOffset dy="3" input="SourceAlpha"/><feGaussianBlur stdDeviation="3" result="f"/><feFlood flood-opacity="0.161"/><feComposite operator="in" in2="f"/><feComposite in="SourceGraphic"/></filter><filter id="g" x="0" y="77.211" width="29.771" height="29.771" filterUnits="userSpaceOnUse"><feOffset dy="3" input="SourceAlpha"/><feGaussianBlur stdDeviation="3" result="h"/><feFlood flood-opacity="0.161"/><feComposite operator="in" in2="h"/><feComposite in="SourceGraphic"/></filter><filter id="i" x="25.452" y="0" width="25.857" height="25.857" filterUnits="userSpaceOnUse"><feOffset dy="3" input="SourceAlpha"/><feGaussianBlur stdDeviation="3" result="j"/><feFlood flood-opacity="0.161"/><feComposite operator="in" in2="j"/><feComposite in="SourceGraphic"/></filter><clipPath id="k"><rect width="139" height="135" transform="translate(483.954 5195.54)" fill="#fff" stroke="#707070" stroke-width="1"/></clipPath></defs><g transform="translate(5637.212 8945.495)"><g transform="translate(-5618.564 -8931.638)"><g transform="matrix(1, 0, 0, 1, -18.65, -13.86)" filter="url(#a)"><path d="M74.1,0c40.923,0,74.1,2.576,74.1,5.753s-33.175,5.753-74.1,5.753S0,8.93,0,5.753,33.175,0,74.1,0Z" transform="translate(18.65 149.48)" fill="#a1b3d6"/></g><g transform="matrix(1, 0, 0, 1, -18.65, -13.86)" filter="url(#c)"><path d="M69.354,0A69.353,69.353,0,1,1,0,69.353,69.353,69.353,0,0,1,69.354,0Z" transform="translate(23.39 13.86)" fill="#f3f9ff"/></g><g transform="matrix(1, 0, 0, 1, -18.65, -13.86)" filter="url(#e)"><circle cx="5.546" cy="5.546" r="5.546" transform="translate(162.1 43.66) rotate(-45)" fill="#455a64"/></g><g transform="matrix(1, 0, 0, 1, -18.65, -13.86)" filter="url(#g)"><circle cx="4.162" cy="4.162" r="4.162" transform="translate(9 89.1) rotate(-45)" fill="#455a64"/></g><g transform="matrix(1, 0, 0, 1, -18.65, -13.86)" filter="url(#i)"><circle cx="2.778" cy="2.778" r="2.778" transform="translate(34.45 9.93) rotate(-45)" fill="#455a64"/></g><g transform="translate(-479.39 -5194.902)" clip-path="url(#k)"><g transform="translate(484.067 5194.704)"><g transform="translate(2.191 2.191)"><g transform="translate(100.788 105.171)"><path d="M85.131,63.481v21.91a2.2,2.2,0,0,1-2.191,2.191H61.03a2.2,2.2,0,0,1-2.191-2.191V63.481A2.2,2.2,0,0,1,61.03,61.29H82.94A2.227,2.227,0,0,1,84.956,62.6v.022a2.2,2.2,0,0,1,.175.855Z" transform="translate(-58.839 -61.29)" fill="#a0d468"/></g><g transform="translate(100.788 70.114)"><path d="M84.956,43.014a2.2,2.2,0,0,1,.175.854V65.779A2.2,2.2,0,0,1,82.94,67.97H61.03a2.2,2.2,0,0,1-2.191-2.191V43.868a2.2,2.2,0,0,1,2.191-2.191H82.94a2.227,2.227,0,0,1,2.016,1.315Z" transform="translate(-58.839 -41.677)" fill="#a0d468"/></g><g transform="translate(74.496 2.191)"><path d="M79.186,3.677V60.645c0-4.952-10.561-7.669-22.261-9.159H56.9a50.618,50.618,0,0,0,.372-6.179A43.591,43.591,0,0,0,44.129,14.019c15.359-.986,35.057-3.571,35.057-10.342Z" transform="translate(-44.129 -3.677)" fill="#ccd1d9"/></g><g transform="translate(109.553)"><path d="M76.888,41.891V61.61A2.2,2.2,0,0,1,74.7,63.8H65.933a2.2,2.2,0,0,1-2.191-2.191V4.643a2.2,2.2,0,0,1,2.191-2.191H74.7a2.2,2.2,0,0,1,2.191,2.191V41.891Z" transform="translate(-63.742 -2.452)" fill="#a0d468"/></g><g transform="translate(122.699 21.911)"><path d="M71.1,14.71a8.764,8.764,0,1,1,0,17.528Z" transform="translate(-71.097 -14.71)" fill="#fcd770"/></g><g transform="translate(32.866 118.317)"><path d="M42.749,68.645v2.191a10.955,10.955,0,0,1-21.911,0V68.645Z" transform="translate(-20.839 -68.645)" fill="#aab2bd"/></g><g transform="translate(28.484 109.553)"><path d="M49.062,63.742v6.573a2.2,2.2,0,0,1-2.191,2.191H20.578a2.2,2.2,0,0,1-2.191-2.191V63.742Z" transform="translate(-18.387 -63.742)" fill="#ccd1d9"/></g><g transform="translate(28.484 100.788)"><path d="M49.062,61.03V67.6H18.387V61.03a2.2,2.2,0,0,1,2.191-2.191H46.871A2.2,2.2,0,0,1,49.062,61.03Z" transform="translate(-18.387 -58.839)" fill="#ccd1d9"/></g><path d="M90.094,46.273a50.616,50.616,0,0,1-.372,6.179,44.826,44.826,0,0,1-4.01,14.22c-5.96,12.686-16.521,20.267-22.327,28L59.419,55.037H63.8a4.395,4.395,0,0,0,4.382-4.382V33.126H59.419v8.764H50.655V33.126H41.891v8.764H33.126V33.126H24.362V50.655a4.395,4.395,0,0,0,4.382,4.382h4.382L29.161,94.673C20.769,83.5,2.452,72.631,2.452,46.273a43.821,43.821,0,0,1,87.642,0Z" transform="translate(-2.452 -2.452)" fill="#ffeaa7"/><g transform="translate(26.709 52.585)"><path d="M47.653,31.871l3.966,39.636a18.95,18.95,0,0,0-3.966,8.567H21.36a18.949,18.949,0,0,0-3.966-8.567L21.36,31.871Z" transform="translate(-17.394 -31.871)" fill="#a0d468"/></g><g transform="translate(21.911 30.675)"><path d="M58.531,19.613V37.141a4.395,4.395,0,0,1-4.382,4.382H19.092a4.395,4.395,0,0,1-4.382-4.382V19.613h8.764v8.764h8.764V19.613H41v8.764h8.764V19.613Z" transform="translate(-14.71 -19.613)" fill="#a0d468"/></g></g><g transform="translate(0 0)"><path d="M25.742,38h4.382v4.382H25.742Z" transform="translate(18.079 27.732)"/><path d="M25.742,42.9h4.382v4.382H25.742Z" transform="translate(18.079 31.593)"/><path d="M25.742,47.806h4.382v4.382H25.742Z" transform="translate(18.079 35.454)"/><path d="M69.59,78.072,64.748,73.23l-3.1,3.1,8.3,8.3L89.011,60.811l-3.422-2.739Z" transform="translate(46.354 43.537)"/><path d="M128.307,132.689H106.4V110.778h13.146V106.4H106.4a4.387,4.387,0,0,0-4.382,4.382v8.764H88.868V88.868h13.146v8.764a4.387,4.387,0,0,0,4.382,4.382h21.911a4.387,4.387,0,0,0,4.382-4.382V88.868h-4.382v8.764H106.4V75.722h13.146V71.34H106.4a4.387,4.387,0,0,0-4.382,4.382v8.764H88.868V68.09a47.5,47.5,0,0,0,3.681-12.2c17.649,2.522,18.23,6.258,18.23,6.689a4.387,4.387,0,0,0,4.382,4.382h8.764a4.387,4.387,0,0,0,4.382-4.382V44.826a10.955,10.955,0,0,0,0-21.468V5.608a4.387,4.387,0,0,0-4.382-4.382h-8.764a4.387,4.387,0,0,0-4.382,4.382c0,2.215-6.823,6.38-32.138,8.094A45.94,45.94,0,0,0,1.226,47.238c0,21.043,11.155,32.59,20.12,41.869,4.709,4.877,8.826,9.161,10.188,13.744a4.38,4.38,0,0,0-1.825,3.545v13.146a4.387,4.387,0,0,0,4.382,4.382,13.146,13.146,0,0,0,26.293,0,4.387,4.387,0,0,0,4.382-4.382V106.4a4.373,4.373,0,0,0-1.825-3.543c1.365-4.584,5.48-8.867,10.188-13.744A102.078,102.078,0,0,0,84.486,75.816v43.727a4.387,4.387,0,0,0,4.382,4.382h13.146v8.764a4.387,4.387,0,0,0,4.382,4.382h21.911a4.387,4.387,0,0,0,4.382-4.382v-8.764h-4.382Zm4.382-98.6a6.564,6.564,0,0,1-4.382,6.17V27.924A6.559,6.559,0,0,1,132.689,34.092ZM123.925,5.608V62.575h-8.764V5.608Zm-13.146,6.231V56.383c-3.589-2.09-9.443-3.681-17.7-4.853.105-1.389.173-2.811.173-4.292A45.8,45.8,0,0,0,82.566,17.806c15.688-1.282,23.948-3.521,28.212-5.966ZM45.047,45.047V36.283h4.382v8.764H62.575V36.283h4.382V51.62a2.193,2.193,0,0,1-2.191,2.191H29.709a2.193,2.193,0,0,1-2.191-2.191V36.283H31.9v8.764ZM58.4,58.193l3.683,36.838a21.69,21.69,0,0,0-3.451,6.983H35.842a21.69,21.69,0,0,0-3.451-6.983l3.683-36.838Zm1.983,48.2v4.382H34.092V106.4ZM47.238,132.689a8.773,8.773,0,0,1-8.764-8.764H56A8.773,8.773,0,0,1,47.238,132.689ZM34.092,119.543v-4.382H60.386v4.382ZM69.979,86.066c-1.385,1.433-2.717,2.818-3.968,4.187L62.805,58.193h1.961A6.581,6.581,0,0,0,71.34,51.62V31.9H58.193v8.764H53.811V31.9H40.665v8.764H36.283V31.9H23.136V51.62a6.581,6.581,0,0,0,6.573,6.573H31.67L28.465,90.253c-1.249-1.369-2.583-2.754-3.966-4.187C15.643,76.9,5.608,66.508,5.608,47.238a41.63,41.63,0,0,1,83.26,0C88.868,66.508,78.833,76.9,69.979,86.066Z" transform="translate(-1.226 -1.226)"/><path d="M69.59,58.46l-4.842-4.842-3.1,3.1,8.3,8.3L89.011,41.2,85.589,38.46Z" transform="translate(46.354 28.094)"/></g></g></g></g></g></svg>