<svg xmlns="http://www.w3.org/2000/svg" xmlns:xlink="http://www.w3.org/1999/xlink" width="191.786" height="165.132" viewBox="0 0 191.786 165.132"><defs><filter id="a" x="14.648" y="135.627" width="166.196" height="29.505" filterUnits="userSpaceOnUse"><feOffset dy="3" input="SourceAlpha"/><feGaussianBlur stdDeviation="3" result="b"/><feFlood flood-opacity="0.161"/><feComposite operator="in" in2="b"/><feComposite in="SourceGraphic"/></filter><filter id="c" x="19.393" y="0" width="156.707" height="156.707" filterUnits="userSpaceOnUse"><feOffset dy="3" input="SourceAlpha"/><feGaussianBlur stdDeviation="3" result="d"/><feFlood flood-opacity="0.161"/><feComposite operator="in" in2="d"/><feComposite in="SourceGraphic"/></filter><filter id="e" x="158.1" y="21.956" width="33.686" height="33.686" filterUnits="userSpaceOnUse"><feOffset dy="3" input="SourceAlpha"/><feGaussianBlur stdDeviation="3" result="f"/><feFlood flood-opacity="0.161"/><feComposite operator="in" in2="f"/><feComposite in="SourceGraphic"/></filter><filter id="g" x="0" y="69.354" width="29.771" height="29.771" filterUnits="userSpaceOnUse"><feOffset dy="3" input="SourceAlpha"/><feGaussianBlur stdDeviation="3" result="h"/><feFlood flood-opacity="0.161"/><feComposite operator="in" in2="h"/><feComposite in="SourceGraphic"/></filter><filter id="i" x="39.452" y="0" width="25.857" height="25.857" filterUnits="userSpaceOnUse"><feOffset dy="3" input="SourceAlpha"/><feGaussianBlur stdDeviation="3" result="j"/><feFlood flood-opacity="0.161"/><feComposite operator="in" in2="j"/><feComposite in="SourceGraphic"/></filter></defs><g transform="translate(5642.212 10007.834)"><g transform="translate(-5618.564 -10001.834)"><g transform="matrix(1, 0, 0, 1, -23.65, -6)" filter="url(#a)"><path d="M74.1,0c40.923,0,74.1,2.576,74.1,5.753s-33.175,5.753-74.1,5.753S0,8.93,0,5.753,33.175,0,74.1,0Z" transform="translate(23.65 141.63)" fill="#a1b3d6"/></g><g transform="matrix(1, 0, 0, 1, -23.65, -6)" filter="url(#c)"><path d="M69.354,0A69.353,69.353,0,1,1,0,69.353,69.353,69.353,0,0,1,69.354,0Z" transform="translate(28.39 6)" fill="#f3f9ff"/></g><g transform="matrix(1, 0, 0, 1, -23.65, -6)" filter="url(#e)"><circle cx="5.546" cy="5.546" r="5.546" transform="translate(167.1 35.8) rotate(-45)" fill="#455a64"/></g><g transform="matrix(1, 0, 0, 1, -23.65, -6)" filter="url(#g)"><circle cx="4.162" cy="4.162" r="4.162" transform="translate(9 81.24) rotate(-45)" fill="#455a64"/></g><g transform="matrix(1, 0, 0, 1, -23.65, -6)" filter="url(#i)"><circle cx="2.778" cy="2.778" r="2.778" transform="translate(48.45 9.93) rotate(-45)" fill="#455a64"/></g><g transform="translate(-1041.765 -1594.756)"><g transform="translate(1046.058 1612.694)"><g transform="translate(2.293 2.293)"><path d="M122.811,225.172l-9.172,56.406H10l9.172-56.406H29.719L34.3,216H61.82l4.586,9.172Z" transform="translate(-10 -168.766)" fill="#ffda8f"/><path d="M174.343,92.687H156V56h68.787v45.858H178.929Z" transform="translate(-122.523 -45.453)" fill="#eefaff"/><path d="M144.787,10V20.547H94.343V57.234H85.172l-4.586,9.172H76V10Z" transform="translate(-60.867 -10)" fill="#39404e"/><path d="M176,336v28.891h36.687V336Z" transform="translate(-137.938 -261.251)" fill="#6d92ac"/><path d="M214.343,145.172H196a9.172,9.172,0,0,1,18.343,0Z" transform="translate(-153.352 -107.109)" fill="#ff7d95"/><ellipse cx="5.217" cy="4.174" rx="5.217" ry="4.174" transform="translate(45.708 21.189)" fill="#e9baa1"/><path d="M25.133,176v18.343H19.172L10,250.749V176Z" transform="translate(-10 -137.938)" fill="#6d92ac"/></g><g transform="translate(0 0)"><circle cx="2.087" cy="2.087" r="2.087" transform="translate(93.914 48.526)"/><path d="M188.293,108.929h18.343a2.293,2.293,0,0,0,2.293-2.293,11.469,11.469,0,0,0-5.75-9.933,6.879,6.879,0,1,0-11.428,0,11.469,11.469,0,0,0-5.75,9.933A2.293,2.293,0,0,0,188.293,108.929Zm9.172-18.343a2.293,2.293,0,1,1-2.293,2.293A2.3,2.3,0,0,1,197.465,90.586Zm0,9.172a6.891,6.891,0,0,1,6.486,4.586H190.979A6.89,6.89,0,0,1,197.465,99.757Z" transform="translate(-143.352 -66.281)"/><path d="M308.293,90.586h22.929a2.293,2.293,0,1,0,0-4.586H308.293a2.293,2.293,0,0,0,0,4.586Z" transform="translate(-235.837 -66.281)"/><path d="M308.293,130.586h22.929a2.293,2.293,0,1,0,0-4.586H308.293a2.293,2.293,0,0,0,0,4.586Z" transform="translate(-235.837 -97.109)"/><path d="M308.293,170.586h22.929a2.293,2.293,0,1,0,0-4.586H308.293a2.293,2.293,0,0,0,0,4.586Z" transform="translate(-235.837 -127.938)"/><path d="M207.272,326.355V297.464a2.293,2.293,0,0,0-2.293-2.293H198.1v-6.879A2.293,2.293,0,0,0,195.808,286H177.464a2.293,2.293,0,0,0-2.293,2.293v6.879h-6.879A2.293,2.293,0,0,0,166,297.464v28.891a2.293,2.293,0,0,0,2.293,2.293h36.687A2.293,2.293,0,0,0,207.272,326.355Zm-27.515-35.77h13.758v4.586H179.757Zm22.929,33.477h-32.1V310.346l15.025,7.513a2.293,2.293,0,0,0,2.051,0l15.025-7.513Zm0-18.843-16.05,8.025-16.05-8.025v-5.462h32.1Z" transform="translate(-127.938 -220.423)"/><circle cx="2.087" cy="2.087" r="2.087" transform="translate(56.348 113.222)"/><path d="M2.293,117.4H48.38a2.293,2.293,0,1,0,0-4.586H4.989l8.426-51.82h8.6a2.293,2.293,0,0,0,2.051-1.268l3.952-7.9H52.7l3.952,7.9A2.293,2.293,0,0,0,58.7,60.991h53.71l-8.426,51.82H69.017a2.293,2.293,0,1,0,0,4.586h36.916a2.293,2.293,0,0,0,2.263-1.925l9.172-56.406a2.293,2.293,0,0,0-2.263-2.661H106.85V12.84a2.293,2.293,0,0,0-2.293-2.293H88.507V2.293A2.293,2.293,0,0,0,86.214,0H17.426a2.293,2.293,0,0,0-2.293,2.293V38.062H2.293A2.293,2.293,0,0,0,0,40.355V115.1A2.3,2.3,0,0,0,2.293,117.4ZM102.264,15.133V56.406H60.116L57.823,51.82H86.213a2.293,2.293,0,1,0,0-4.586H38.062v-32.1ZM19.719,4.586h64.2v5.962H35.769a2.293,2.293,0,0,0-2.293,2.293V47.234H26.6A2.293,2.293,0,0,0,24.547,48.5l-3.952,7.9h-.876ZM4.586,42.648H15.133V56.406H11.465A2.293,2.293,0,0,0,9.2,58.331L4.586,86.716Z" transform="translate(0 0)"/></g></g><g transform="translate(1080.044 1628.837)"><path d="M36.485,141.211h-26.3a2.649,2.649,0,0,1-2.649-2.649V48.074a2.649,2.649,0,0,1,2.649-2.649h26.3a2.649,2.649,0,0,1,2.649,2.649v90.488A2.649,2.649,0,0,1,36.485,141.211Z" transform="translate(-5.873 -40.78)" fill="#6d92ac"/><path d="M36.472,45.425H31.086v77.486A10.549,10.549,0,0,1,20.537,133.46h-13v5.089a2.662,2.662,0,0,0,2.662,2.662H36.472a2.662,2.662,0,0,0,2.662-2.662V48.087a2.662,2.662,0,0,0-2.662-2.662Z" transform="translate(-5.873 -40.78)" fill="#5a819d"/><path d="M50.982,387.914H43.938a5.443,5.443,0,0,1-5.443-5.443v-.054a5.443,5.443,0,0,1,5.443-5.443h7.044a5.443,5.443,0,0,1,5.443,5.443v.054a5.443,5.443,0,0,1-5.443,5.443Z" transform="translate(-29.998 -299.144)" fill="#586b76"/><path d="M51.823,376.974h-1.61a5.474,5.474,0,0,1-5.224,7.1H39.609a5.472,5.472,0,0,0,5.224,3.843h6.991a5.47,5.47,0,1,0,0-10.94Z" transform="translate(-30.866 -299.144)" fill="#465961"/><path d="M53.253,147.852H36.966a1.487,1.487,0,0,1-1.487-1.487V101.712a1.487,1.487,0,0,1,1.487-1.487H53.253a1.487,1.487,0,0,1,1.487,1.487v44.653A1.487,1.487,0,0,1,53.253,147.852Z" transform="translate(-27.648 -83.484)" fill="#fff0e1"/><path d="M53.246,100.225H48.572v40.239a1.494,1.494,0,0,1-1.494,1.494h-11.6v4.4a1.494,1.494,0,0,0,1.494,1.494H53.246a1.494,1.494,0,0,0,1.494-1.494V101.719A1.494,1.494,0,0,0,53.246,100.225Z" transform="translate(-27.648 -83.484)" fill="#ffeccf"/><path d="M179.588,141.211h-26.3a2.649,2.649,0,0,1-2.649-2.649V48.074a2.649,2.649,0,0,1,2.649-2.649h26.3a2.649,2.649,0,0,1,2.649,2.649v90.488A2.649,2.649,0,0,1,179.588,141.211Z" transform="translate(-117.389 -40.78)" fill="#ffd782"/><path d="M179.575,45.425h-5.386v77.486A10.549,10.549,0,0,1,163.64,133.46h-13v5.089a2.662,2.662,0,0,0,2.662,2.662h26.273a2.662,2.662,0,0,0,2.662-2.662V48.087a2.662,2.662,0,0,0-2.662-2.662Z" transform="translate(-117.389 -40.78)" fill="#f8c457"/><path d="M194.085,387.914h-7.044a5.443,5.443,0,0,1-5.443-5.443v-.054a5.443,5.443,0,0,1,5.443-5.443h7.044a5.443,5.443,0,0,1,5.443,5.443v.054A5.443,5.443,0,0,1,194.085,387.914Z" transform="translate(-141.513 -299.144)" fill="#586b76"/><path d="M194.926,376.974h-1.61a5.474,5.474,0,0,1-5.224,7.1h-5.381a5.472,5.472,0,0,0,5.224,3.843h6.991a5.47,5.47,0,1,0,0-10.94Z" transform="translate(-142.38 -299.144)" fill="#465961"/><path d="M196.357,147.852H180.07a1.487,1.487,0,0,1-1.487-1.487V101.712a1.487,1.487,0,0,1,1.487-1.487h16.287a1.487,1.487,0,0,1,1.487,1.487v44.653A1.487,1.487,0,0,1,196.357,147.852Z" transform="translate(-139.164 -83.484)" fill="#fff0e1"/><path d="M196.351,100.225h-4.674v40.239a1.494,1.494,0,0,1-1.494,1.494h-11.6v4.4a1.494,1.494,0,0,0,1.494,1.494h16.273a1.494,1.494,0,0,0,1.494-1.494V101.719A1.5,1.5,0,0,0,196.351,100.225Z" transform="translate(-139.164 -83.484)" fill="#ffeccf"/><path d="M338.081,126.354,312.16,130.8a2.649,2.649,0,0,1-3.058-2.163L293.814,39.446a2.649,2.649,0,0,1,2.163-3.058L321.9,31.945a2.649,2.649,0,0,1,3.058,2.163L340.244,123.3a2.649,2.649,0,0,1-2.163,3.058Z" transform="translate(-228.929 -30.245)" fill="#c3e678"/><path d="M372.966,31.954l-5.439.866,13.1,76.585a10.549,10.549,0,0,1-8.615,12.179l-12.683,2.24.855,4.8a2.662,2.662,0,0,0,3.073,2.174l25.9-4.439a2.662,2.662,0,0,0,2.174-3.073L376.039,34.128a2.662,2.662,0,0,0-3.073-2.174Z" transform="translate(-280.01 -30.252)" fill="#a6ce51"/><path d="M395.572,376.736l-6.943,1.19a5.443,5.443,0,0,1-6.284-4.445l-.009-.053a5.443,5.443,0,0,1,4.445-6.284l6.943-1.19a5.443,5.443,0,0,1,6.284,4.445l.009.053A5.443,5.443,0,0,1,395.572,376.736Z" transform="translate(-297.879 -290.495)" fill="#586b76"/><path d="M395.819,365.973l-1.586.272a5.474,5.474,0,0,1-3.95,7.877l-5.3.909a5.472,5.472,0,0,0,5.8,2.905l6.89-1.181a5.47,5.47,0,0,0-1.848-10.782Z" transform="translate(-300.001 -290.51)" fill="#465961"/><path d="M355.1,136.791l-16.053,2.752a1.487,1.487,0,0,1-1.717-1.214l-7.544-44.011A1.487,1.487,0,0,1,331,92.6l16.053-2.752a1.487,1.487,0,0,1,1.717,1.214l7.544,44.011A1.487,1.487,0,0,1,355.1,136.791Z" transform="translate(-256.972 -75.381)" fill="#fff0e1"/><path d="M371.251,89.854l-4.607.79,6.834,39.936a1.494,1.494,0,0,1-1.22,1.725l-11.432,1.96.708,4.06a1.494,1.494,0,0,0,1.725,1.22L379.3,136.8a1.494,1.494,0,0,0,1.22-1.725l-7.542-44A1.494,1.494,0,0,0,371.251,89.854Z" transform="translate(-281.179 -75.385)" fill="#ffeccf"/><path d="M45.081,369.437H38.09a7.133,7.133,0,1,0,0,14.267h6.991a7.133,7.133,0,1,0,0-14.267Zm0,10.94H38.09a3.806,3.806,0,0,1,0-7.612h6.991a3.806,3.806,0,0,1,0,7.612Z" transform="translate(-24.124 -293.271)"/><path d="M50.531,95.845a3.162,3.162,0,0,0-3.158-3.158H31.1a3.162,3.162,0,0,0-3.158,3.158v44.638a3.162,3.162,0,0,0,3.158,3.158H47.374a3.162,3.162,0,0,0,3.158-3.158ZM47.2,140.314H31.27v-44.3H47.2Z" transform="translate(-21.775 -77.609)"/><path d="M59.043,176.709a1.664,1.664,0,0,0,1.664-1.664V154.474a1.664,1.664,0,1,0-3.327,0v20.572A1.664,1.664,0,0,0,59.043,176.709Z" transform="translate(-44.713 -124.461)"/><path d="M87.429,195.852a1.664,1.664,0,0,0,1.664-1.664v-15.15a1.664,1.664,0,1,0-3.327,0v15.15A1.664,1.664,0,0,0,87.429,195.852Z" transform="translate(-66.834 -143.604)"/><path d="M188.185,369.437h-6.99a7.133,7.133,0,1,0,0,14.267h6.99a7.133,7.133,0,1,0,0-14.267Zm0,10.94h-6.99a3.806,3.806,0,1,1,0-7.612h6.99a3.806,3.806,0,0,1,0,7.612Z" transform="translate(-135.64 -293.271)"/><path d="M193.634,95.845a3.162,3.162,0,0,0-3.158-3.158H174.2a3.162,3.162,0,0,0-3.158,3.158v44.638a3.162,3.162,0,0,0,3.158,3.158h16.273a3.162,3.162,0,0,0,3.158-3.158Zm-3.327,44.469H174.373v-44.3h15.934Z" transform="translate(-133.29 -77.609)"/><path d="M202.146,176.709a1.664,1.664,0,0,0,1.664-1.664V154.474a1.664,1.664,0,1,0-3.327,0v20.572A1.664,1.664,0,0,0,202.146,176.709Z" transform="translate(-156.229 -124.461)"/><path d="M230.533,176.71a1.664,1.664,0,0,0,1.664-1.664V154.474a1.664,1.664,0,1,0-3.327,0v20.572A1.664,1.664,0,0,0,230.533,176.71Z" transform="translate(-178.35 -124.461)"/><path d="M112.953,117.137,97.67,27.976a4.331,4.331,0,0,0-4.994-3.533l-25.9,4.439a4.326,4.326,0,0,0-1.056.325,4.321,4.321,0,0,0-3.537-1.844H35.913a4.3,4.3,0,0,0-2.656.919,4.3,4.3,0,0,0-2.659-.919H16.615a1.664,1.664,0,1,0,0,3.327H30.6a1,1,0,0,1,.992.938c0,.02,0,.04,0,.06V108.1a1.664,1.664,0,0,0,3.327,0V31.688a1,1,0,0,1,1-1H62.186a1,1,0,0,1,1,1V122.15a1,1,0,0,1-1,1H35.913a1,1,0,0,1-.992-.938c0-.02,0-.04,0-.06a1.665,1.665,0,0,0-.009-.174v-6.3a1.664,1.664,0,0,0-3.327,0v6.473c0,.02,0,.04,0,.06a1,1,0,0,1-.992.938H4.326a1,1,0,0,1-1-1V31.688a1,1,0,0,1,1-1h4.6a1.664,1.664,0,0,0,0-3.327h-4.6A4.33,4.33,0,0,0,0,31.688V122.15a4.331,4.331,0,0,0,4.326,4.326H30.6a4.3,4.3,0,0,0,2.657-.92,4.3,4.3,0,0,0,2.657.92H62.187a4.33,4.33,0,0,0,4.326-4.326V52.922l12.019,70.115a4.328,4.328,0,0,0,4.254,3.6,4.377,4.377,0,0,0,.74-.063l25.9-4.439a4.325,4.325,0,0,0,3.532-4.994Zm-3.448,1.307a.991.991,0,0,1-.646.407l-25.9,4.439a1,1,0,0,1-1.152-.815L66.527,33.314a.991.991,0,0,1,.073-.577h0a1,1,0,0,1,.742-.575l25.9-4.439a1,1,0,0,1,1.152.815L109.673,117.7a.991.991,0,0,1-.169.745Z" transform="translate(0 -24.381)"/><path d="M387.555,358.46l-6.89,1.181a7.135,7.135,0,0,0,1.19,14.166,7.23,7.23,0,0,0,1.221-.1l6.89-1.181a7.133,7.133,0,1,0-2.411-14.062Zm4.313,9.229a3.782,3.782,0,0,1-2.464,1.554l-6.89,1.181a3.806,3.806,0,1,1-1.286-7.5l6.89-1.181a3.806,3.806,0,0,1,3.751,5.949Z" transform="translate(-292.018 -284.636)"/><path d="M336.685,133.07a1.665,1.665,0,0,0-1.921-1.359l-1.7.291L325.584,88.34l15.7-2.692,7.484,43.662-6.4,1.1a1.664,1.664,0,0,0,.562,3.28l6.564-1.125a3.162,3.162,0,0,0,2.579-3.646l-7.541-44a3.158,3.158,0,0,0-3.646-2.579l-16.039,2.749a3.161,3.161,0,0,0-2.579,3.646l7.541,44a3.16,3.16,0,0,0,3.106,2.625,3.225,3.225,0,0,0,.54-.046l1.864-.32A1.663,1.663,0,0,0,336.685,133.07Z" transform="translate(-251.103 -69.51)"/><path d="M361.737,150.3a1.664,1.664,0,0,0-1.359,1.921l3.476,20.276a1.664,1.664,0,1,0,3.279-.562l-3.476-20.277A1.664,1.664,0,0,0,361.737,150.3Z" transform="translate(-280.812 -122.487)"/><path d="M393.47,169.084a1.664,1.664,0,0,0,1.642-1.945l-3.476-20.276a1.664,1.664,0,1,0-3.279.562l3.476,20.276a1.664,1.664,0,0,0,1.638,1.383Z" transform="translate(-302.614 -118.749)"/></g></g></g></g></svg>