<svg xmlns="http://www.w3.org/2000/svg" xmlns:xlink="http://www.w3.org/1999/xlink" width="172" height="172" viewBox="0 0 172 172">
  <defs>
    <clipPath id="clip-path">
      <circle id="Elipse_7760" data-name="Elipse 7760" cx="86" cy="86" r="86" transform="translate(233 3585)" fill="none" stroke="#707070" stroke-width="1"/>
    </clipPath>
  </defs>
  <g id="Enmascarar_grupo_927502" data-name="Enmascarar grupo 927502" transform="translate(-233 -3585)" clip-path="url(#clip-path)">
    <g id="insertar" transform="translate(274.926 3623.566)">
      <g id="Grupo_927593" data-name="Grupo 927593" transform="translate(2.048 20.011)">
        <path id="Trazado_631800" data-name="Trazado 631800" d="M134.977,146.663V97.7H51v48.961a3.78,3.78,0,0,0,3.771,3.768h76.436A3.78,3.78,0,0,0,134.977,146.663Z" transform="translate(-51 -97.702)" fill="#e6e6e6" fill-rule="evenodd"/>
      </g>
      <g id="Grupo_927594" data-name="Grupo 927594" transform="translate(2.048 2.048)">
        <path id="Trazado_631801" data-name="Trazado 631801" d="M134.977,27.963v-14.2A3.78,3.78,0,0,0,131.207,10H54.771A3.78,3.78,0,0,0,51,13.768v14.2Z" transform="translate(-51 -10)" fill="#fcd03e" fill-rule="evenodd"/>
      </g>
      <g id="Grupo_927595" data-name="Grupo 927595" transform="translate(15.022 92.021)">
        <path id="Trazado_631802" data-name="Trazado 631802" d="M114.341,449.277h58.03v10.8h-58.03Z" transform="translate(-114.341 -449.277)" fill="#45b30f" fill-rule="evenodd"/>
      </g>
      <g id="Grupo_927596" data-name="Grupo 927596" transform="translate(24.847 33.469)">
        <path id="Trazado_631803" data-name="Trazado 631803" d="M191.131,201.007V182.585h9.557L181.5,163.408l-19.19,19.177h9.557v30.039h19.266Z" transform="translate(-162.308 -163.408)" fill="#45b30f" fill-rule="evenodd"/>
      </g>
      <g id="Grupo_927597" data-name="Grupo 927597" transform="translate(0 0)">
        <path id="Trazado_631804" data-name="Trazado 631804" d="M357.829,47.948a2.048,2.048,0,1,0,0-4.1h-.012a2.048,2.048,0,1,0,.012,4.1Z" transform="translate(-291.302 -34.87)"/>
        <path id="Trazado_631805" data-name="Trazado 631805" d="M402.8,47.948a2.048,2.048,0,0,0,0-4.1H402.8a2.048,2.048,0,1,0,.006,4.1Z" transform="translate(-327.065 -34.87)"/>
        <path id="Trazado_631806" data-name="Trazado 631806" d="M312.853,47.948a2.048,2.048,0,0,0,0-4.1h-.006a2.048,2.048,0,1,0,.006,4.1Z" transform="translate(-255.541 -34.87)"/>
        <path id="Trazado_631807" data-name="Trazado 631807" d="M93.284,47.948h25.645a2.048,2.048,0,0,0,0-4.1H93.284a2.048,2.048,0,1,0,0,4.1Z" transform="translate(-80.947 -34.87)"/>
        <path id="Trazado_631808" data-name="Trazado 631808" d="M164.419,439.276h-58.03a2.048,2.048,0,0,0-2.048,2.048v10.8a2.048,2.048,0,0,0,2.048,2.048H126.2a2.048,2.048,0,1,0,0-4.1H108.437v-6.7h53.933v6.7H144.607a2.048,2.048,0,1,0,0,4.1h19.812a2.048,2.048,0,0,0,2.048-2.048v-10.8A2.048,2.048,0,0,0,164.419,439.276Z" transform="translate(-91.367 -349.302)"/>
        <path id="Trazado_631809" data-name="Trazado 631809" d="M248.048,492a2.048,2.048,0,1,0,0,4.1h.012a2.048,2.048,0,1,0-.012-4.1Z" transform="translate(-204.011 -391.227)"/>
        <path id="Trazado_631810" data-name="Trazado 631810" d="M123.255,0H46.819A5.824,5.824,0,0,0,41,5.816V68.972a5.824,5.824,0,0,0,5.819,5.816H73.356v7.9A2.048,2.048,0,0,0,75.4,84.734H94.67a2.048,2.048,0,0,0,2.048-2.048v-7.9h26.537a5.824,5.824,0,0,0,5.819-5.816V5.816A5.824,5.824,0,0,0,123.255,0ZM46.819,4.1h76.436a1.723,1.723,0,0,1,1.722,1.72V17.963H45.1V5.816A1.723,1.723,0,0,1,46.819,4.1ZM77.452,80.638V52.646A2.048,2.048,0,0,0,75.4,50.6h-4.61L85.037,36.365,99.28,50.6H94.67a2.048,2.048,0,0,0-2.048,2.048V80.638Zm45.8-9.945H96.718v-16h7.509a2.048,2.048,0,0,0,1.448-3.5L86.484,32.021a2.048,2.048,0,0,0-2.9,0L64.4,51.2a2.048,2.048,0,0,0,1.448,3.5h7.509v16H46.819a1.723,1.723,0,0,1-1.722-1.72V22.06h79.881V68.972a1.723,1.723,0,0,1-1.722,1.72Z" transform="translate(-41 0)"/>
      </g>
    </g>
  </g>
</svg>
