<svg xmlns="http://www.w3.org/2000/svg" xmlns:xlink="http://www.w3.org/1999/xlink" width="172" height="172" viewBox="0 0 172 172">
  <defs>
    <clipPath id="clip-path">
      <circle id="Elipse_7760" data-name="Elipse 7760" cx="86" cy="86" r="86" transform="translate(233 3585)" fill="none" stroke="#707070" stroke-width="1"/>
    </clipPath>
  </defs>
  <g id="Enmascarar_grupo_927502" data-name="Enmascarar grupo 927502" transform="translate(-233 -3585)" clip-path="url(#clip-path)">
    <g id="borrar_1_" data-name="borrar (1)" transform="translate(266.131 3615.496)">
      <path id="Trazado_631827" data-name="Trazado 631827" d="M13,34.137V2H38.372l3.383,5.074h35.52V34.137Z" transform="translate(7.297 -0.309)" fill="#99c066"/>
      <path id="Trazado_631828" data-name="Trazado 631828" d="M29.694,7H72.509V30.68H15V21.694A14.694,14.694,0,0,1,29.694,7Z" transform="translate(8.68 3.149)" fill="#b4dd7f"/>
      <path id="Trazado_631829" data-name="Trazado 631829" d="M17,27.606V19.149L28.84,9h38.9V27.606Z" transform="translate(10.063 4.531)" fill="#fff"/>
      <path id="Trazado_631830" data-name="Trazado 631830" d="M93.955,75.435V28.074A5.074,5.074,0,0,0,88.88,23H11.074A5.074,5.074,0,0,0,6,28.074v47.36Z" transform="translate(2.457 14.212)" fill="#7288a0"/>
      <path id="Trazado_631831" data-name="Trazado 631831" d="M89.189,76.435H8V30.766A6.766,6.766,0,0,1,14.766,24H82.423a6.766,6.766,0,0,1,6.766,6.766Z" transform="translate(3.84 14.903)" fill="#95afd1"/>
      <path id="Trazado_631832" data-name="Trazado 631832" d="M2,54H103.486A13.531,13.531,0,0,1,89.955,67.531H15.531A13.531,13.531,0,0,1,2,54Z" transform="translate(-0.309 35.646)" fill="#636363"/>
      <path id="Trazado_631833" data-name="Trazado 631833" d="M13.457,62.457H87.88A8.457,8.457,0,0,0,96.338,54H5A8.457,8.457,0,0,0,13.457,62.457Z" transform="translate(1.766 35.646)" fill="#717272"/>
      <path id="Trazado_631834" data-name="Trazado 631834" d="M47.212,70.126h35.52L84.423,16h-20.3l-3.383,5.074H10l1.691,49.052Z" transform="translate(5.223 9.372)" fill="#99c066"/>
      <path id="Trazado_631835" data-name="Trazado 631835" d="M17,19.149H28.84V9Z" transform="translate(10.063 4.531)" fill="#d7e0ef"/>
      <path id="Trazado_631836" data-name="Trazado 631836" d="M53.446,54l-.46,1.844a6.5,6.5,0,0,1-6.306,4.922H29.766a6.5,6.5,0,0,1-6.306-4.922L23,54Z" transform="translate(14.212 35.646)" fill="#adadad"/>
      <path id="Trazado_631837" data-name="Trazado 631837" d="M59.573,22.537a5.7,5.7,0,0,1-4.736,2.537h-40.7l.233,6.788a36.767,36.767,0,0,0,36.745,35.5H79.871L81.351,20H64.309a5.7,5.7,0,0,0-4.736,2.537Z" transform="translate(8.084 12.137)" fill="#b4dd7f"/>
      <path id="Trazado_631838" data-name="Trazado 631838" d="M23,27H53.446v6.766H23Z" transform="translate(14.212 16.977)" fill="#717272"/>
      <path id="Trazado_631839" data-name="Trazado 631839" d="M51.063,31,49.372,52.989H25.691L24,31Z" transform="translate(14.903 19.743)" fill="#adadad"/>
      <g id="Grupo_927599" data-name="Grupo 927599" transform="translate(43.977 55.817)">
        <path id="Trazado_631840" data-name="Trazado 631840" d="M31,34h3.383V50.913H31Z" transform="translate(-24.234 -34)" fill="#0380f2"/>
        <path id="Trazado_631841" data-name="Trazado 631841" d="M27,34h3.383V50.914H27Z" transform="translate(-27 -33.999)" fill="#0380f2"/>
        <path id="Trazado_631842" data-name="Trazado 631842" d="M35,34h3.383V50.913H35Z" transform="translate(-21.469 -34)" fill="#0380f2"/>
      </g>
      <path id="Trazado_631843" data-name="Trazado 631843" d="M29,23H39.149v6.766H29Z" transform="translate(18.36 14.212)" fill="#adadad"/>
      <path id="Trazado_631844" data-name="Trazado 631844" d="M104.178,88.955H99.1V43.286a6.766,6.766,0,0,0-6.766-6.766H92.02l.318-10.1a1.691,1.691,0,0,0-1.691-1.744H87.263V7.766a1.691,1.691,0,0,0-1.691-1.691H50.957L48.081,1.753A1.691,1.691,0,0,0,46.669,1H21.3a1.691,1.691,0,0,0-1.691,1.691V29.754H16.223a1.691,1.691,0,0,0-1.691,1.751L14.7,36.52h-.169a6.766,6.766,0,0,0-6.766,6.766V88.955H2.691A1.691,1.691,0,0,0,1,90.646a15.24,15.24,0,0,0,15.223,15.223H90.646a15.24,15.24,0,0,0,15.223-15.223,1.691,1.691,0,0,0-1.691-1.691ZM22.989,4.383H45.764L48.639,8.7a1.691,1.691,0,0,0,1.412.753H83.88V24.68H80.5V14.531a1.691,1.691,0,0,0-1.691-1.691H39.9a1.681,1.681,0,0,0-1.1.408L26.964,23.4a1.691,1.691,0,0,0-.592,1.284v5.074H22.989Zm6.766,21.989H39.9a1.691,1.691,0,0,0,1.691-1.691V16.223h35.52V24.68H70.349a1.692,1.692,0,0,0-1.407.753l-2.88,4.321H29.754Zm2.875-3.383,5.582-4.78v4.78ZM66.966,33.137a1.692,1.692,0,0,0,1.407-.753l2.88-4.321H88.9L87.316,78.806H19.548L17.974,33.137ZM11.149,43.286A3.383,3.383,0,0,1,14.531,39.9h.291l1.4,40.654a1.691,1.691,0,0,0,1.691,1.632h71.04a1.691,1.691,0,0,0,1.691-1.639L91.915,39.9h.423a3.383,3.383,0,0,1,3.383,3.383V88.955H11.149ZM66.467,92.338a4.788,4.788,0,0,1-4.575,3.383H44.977a4.788,4.788,0,0,1-4.567-3.383Zm24.179,10.149H16.223A11.859,11.859,0,0,1,4.5,92.338H36.892l.14.562a8.175,8.175,0,0,0,7.945,6.2H61.892a8.175,8.175,0,0,0,7.95-6.2l.135-.562h32.389a11.859,11.859,0,0,1-11.72,10.149Z" transform="translate(-1 -1)"/>
      <path id="Trazado_631845" data-name="Trazado 631845" d="M23.691,38.914h.125l1.566,20.427A1.691,1.691,0,0,0,27.074,60.9h23.68a1.691,1.691,0,0,0,1.691-1.561l1.566-20.427h.125a1.691,1.691,0,0,0,1.691-1.691V30.457a1.691,1.691,0,0,0-1.691-1.691H45.68V23.691A1.691,1.691,0,0,0,43.989,22H33.84a1.691,1.691,0,0,0-1.691,1.691v5.074H23.691A1.691,1.691,0,0,0,22,30.457v6.766A1.691,1.691,0,0,0,23.691,38.914Zm25.5,18.606H47.372V42.3H43.989V57.52H40.606V42.3H37.223V57.52H33.84V42.3H30.457V57.52H28.641L27.21,38.914H50.619ZM35.531,25.383H42.3v3.383H35.531ZM25.383,32.149H52.446v3.383H25.383Z" transform="translate(13.52 13.52)"/>
    </g>
  </g>
</svg>
